Coordinates
version=1
nRows=11
nColumns=42
inDegrees=yes

Units are S.I. units (second, meters, Newtons, ...)
If the header above contains a line with 'inDegrees', this indicates whether rotational values are in degrees (yes) or radians (no).

endheader
time	pelvis_tilt	pelvis_list	pelvis_rotation	pelvis_tx	pelvis_ty	pelvis_tz	hip_flexion_r	hip_adduction_r	hip_rotation_r	knee_angle_r	knee_adduction_r	knee_angle_r_beta	ankle_angle_r	subtalar_angle_r	mtp_angle_r	hip_flexion_l	hip_adduction_l	hip_rotation_l	knee_angle_l	knee_adduction_l	knee_angle_l_beta	ankle_angle_l	subtalar_angle_l	mtp_angle_l	lumbar_extension	lumbar_bending	lumbar_rotation	arm_flex_r	arm_add_r	arm_rot_r	elbow_flex_r	pro_sup_r	wrist_flex_r	wrist_dev_r	arm_flex_l	arm_add_l	arm_rot_l	elbow_flex_l	pro_sup_l	wrist_flex_l	wrist_dev_l
      0.00000000	      3.07285963	      0.18573926	     -1.11034418	     -2.10632417	      0.97609452	      0.26645653	     16.32607261	     -6.91717252	     -7.29154425	     38.42349205	      5.07574492	      0.67061645	     10.42402328	      4.05760373	     -9.62504268	     -6.46071295	      2.53781704	     -7.39479689	      3.56949922	     -1.18030274	      0.06229951	      9.73932380	     18.97213983	     -9.62504268	    -11.40027926	     -0.23259917	     -2.18634803	     -7.13955993	    -11.76135740	      7.11238011	     28.82686732	     90.00000001	      0.00000000	      0.00000000	     10.16712234	    -17.95614548	     21.61721724	     32.35949106	     90.00000001	      0.00000000	      0.00000000
      0.01000000	      2.96022021	      0.36585043	     -1.14518808	     -2.10091264	      0.97533590	      0.26641928	     16.86401878	     -7.08347510	     -7.76319089	     37.22437094	      4.92911522	      0.64968783	     10.43189074	      4.09570543	     -9.60454705	     -6.67988642	      2.78626736	     -7.53742581	      3.59419770	     -1.24573572	      0.06273058	     10.02490810	     18.96717529	     -9.60454705	    -11.22923874	     -0.33753593	     -2.14042845	     -7.43976939	    -11.72914757	      7.12830221	     28.70970484	     90.00000001	      0.00000000	      0.00000000	     10.45841111	    -18.00290515	     21.54999254	     32.75602083	     90.00000001	      0.00000000	      0.00000000
      0.02000000	      3.23852408	      0.14438233	     -0.91896093	     -2.09372630	      0.97500237	      0.26651713	     16.74961281	     -6.79977004	     -8.74039026	     35.25424760	      4.69698205	      0.61530270	     10.45118235	      4.65468224	     -9.53122006	     -7.51854292	      2.49813304	     -7.45239322	      3.48480564	     -1.20532906	      0.06082133	     10.58302390	     19.38353946	     -9.53122006	    -11.47669360	      0.01150643	     -2.35664796	     -7.63716121	    -11.62965706	      7.00404650	     28.34851439	     90.00000001	      0.00000000	      0.00000000	     10.68580689	    -18.19762819	     21.53618697	     33.64079957	     90.00000001	      0.00000000	      0.00000000
      0.03000000	      3.06826632	      0.43961583	     -0.99151891	     -2.08574836	      0.97372096	      0.26662395	     17.49667196	     -7.04560673	     -9.44658199	     33.45370854	      4.48451248	      0.58387736	     10.38809119	      4.82079379	     -9.51115275	     -7.84190306	      2.88442295	     -7.66539476	      3.52537587	     -1.29274992	      0.06152942	     10.97458816	     19.35500465	     -9.51115275	    -11.22613703	     -0.20167581	     -2.30763223	     -8.03264409	    -11.55991499	      7.01382612	     28.17272815	     90.00000001	      0.00000000	      0.00000000	     11.07785446	    -18.27686087	     21.45551721	     34.17739594	     90.00000001	      0.00000000	      0.00000000
      0.04000000	      3.48699120	      0.12193604	     -0.66085501	     -2.07649910	      0.97319001	      0.26689333	     17.12444350	     -6.63392959	    -10.59654954	     30.72165743	      4.32409593	      0.53619407	     10.30087645	      5.91001018	     -9.44113661	     -9.00438849	      2.44072988	     -7.51881403	      3.33697688	     -1.22575826	      0.05824123	     11.68698333	     19.92502821	     -9.44113661	    -11.62224751	      0.28210034	     -2.61131901	     -8.21087538	    -11.39122554	      6.79545007	     27.60070684	     90.00000001	      0.00000000	      0.00000000	     11.33429667	    -18.58427749	     21.46709516	     35.44963545	     90.00000001	      0.00000000	      0.00000000
      0.05000000	      3.38809335	      0.33524281	     -0.61990749	     -2.06701672	      0.97169794	      0.26697712	     17.57694677	     -6.80106067	    -11.28432801	     28.20754889	      4.30643655	      0.49231460	     10.06817484	      6.62505006	     -9.40519635	     -9.53254947	      2.70858902	     -7.55435878	      3.32641713	     -1.30096678	      0.05805693	     12.28789623	     20.11704115	     -9.40519635	    -11.43524915	      0.21256959	     -2.72068433	     -8.52866825	    -11.30965423	      6.72775771	     27.26909445	     90.00000001	      0.00000000	      0.00000000	     11.60733391	    -18.75455921	     21.41314720	     36.34813330	     90.00000001	      0.00000000	      0.00000000
      0.06000000	      3.74715694	      0.18168179	     -0.41197733	     -2.05693457	      0.97069015	      0.26750842	     17.30254620	     -6.48586472	    -12.37679259	     25.37113704	      4.10946751	      0.44280988	      9.87252849	      7.58435123	     -9.33282129	    -10.64342836	      2.43409437	     -7.64349489	      3.22117705	     -1.21393518	      0.05622015	     12.91260173	     20.53180055	     -9.33282129	    -11.75487027	      0.50953427	     -2.94311784	     -8.73394795	    -11.13092108	      6.48668753	     26.79834757	     90.00000001	      0.00000000	      0.00000000	     11.85129834	    -19.04580085	     21.41536245	     37.55100546	     90.00000001	      0.00000000	      0.00000000
      0.07000000	      3.54733049	      0.49390047	     -0.38555839	     -2.04721643	      0.96878998	      0.26776450	     17.82531887	     -6.73939920	    -12.91428139	     22.85565399	      4.17269395	      0.39890641	      9.56416269	      8.38057646	     -9.30554157	    -11.03294292	      2.83524485	     -7.64603986	      3.27898351	     -1.37526098	      0.05722906	     13.51375696	     20.62992232	     -9.30554157	    -11.49091626	      0.32364551	     -3.04880003	     -9.03142822	    -11.01548742	      6.46192003	     26.49930272	     90.00000001	      0.00000000	      0.00000000	     12.11024876	    -19.22169266	     21.31927382	     38.49781710	     90.00000001	      0.00000000	      0.00000000
      0.08000000	      3.92682916	      0.30136492	     -0.15910496	     -2.03687659	      0.96762025	      0.26839700	     17.35489711	     -6.38523875	    -13.77404362	     19.96075430	      4.13525237	      0.34838088	      9.31250652	      9.48012756	     -9.24382048	    -12.16324446	      2.49507760	     -7.58887953	      3.22915889	     -1.27341655	      0.05635945	     14.15885335	     20.89838651	     -9.24382048	    -11.83083869	      0.67659473	     -3.33065679	     -9.14046981	    -10.86653961	      6.24588734	     25.93868849	     90.00000001	      0.00000000	      0.00000000	     12.18948244	    -19.56156810	     21.26217844	     39.86758996	     90.00000001	      0.00000000	      0.00000000
      0.09000000	      3.79002406	      0.51138566	     -0.08727079	     -2.02708149	      0.96568624	      0.26880422	     17.65023932	     -6.53079065	    -14.20457859	     17.54319377	      4.25360627	      0.30618649	      8.98936752	     10.46894754	     -9.21203396	    -12.60742824	      2.74496620	     -7.47283647	      3.32677567	     -1.39519997	      0.05806319	     14.77690404	     20.94353581	     -9.21203396	    -11.65045110	      0.60663272	     -3.47357255	     -9.37172433	    -10.76119744	      6.17720446	     25.63506044	     90.00000001	      0.00000000	      0.00000000	     12.34518443	    -19.76345733	     21.17667960	     40.87805838	     90.00000001	      0.00000000	      0.00000000
      0.10000000	      3.66469318	      0.67709646	     -0.01180571	     -2.01726446	      0.96377713	      0.26926470	     17.88011884	     -6.61383113	    -14.62362632	     15.26870111	      4.32052319	      0.26648911	      8.68205053	     11.50679347	     -9.18849766	    -13.05622896	      2.96241577	     -7.32723670	      3.44089440	     -1.56576187	      0.06005494	     15.40221923	     20.93430555	     -9.18849766	    -11.48045745	      0.58691117	     -3.65547418	     -9.54628830	    -10.68496619	      6.11448018	     25.34763740	     90.00000001	      0.00000000	      0.00000000	     12.40241063	    -19.96308272	     21.09841962	     41.91003201	     90.00000001	      0.00000000	      0.00000000
